# xmcd
#
# Track frame offsets:
#	150
#	21452
#	66281
#	86831
#	127931
#	157389
#	187344
#	238846
#	291682
#	321893
#
# Disc length: 4686 seconds
# Revision: 0
# Processed by: cddbd v1.5.2PL0 Copyright (c) Steve Scherf et al.
# Submitted via: dBpowerAMP V12.0
#
DISCID=a5124c0a
DTITLE=John Mayall - Blues Express
DYEAR=2010
DGENRE=Blues
TTITLE0=Gone From The Canyon
TTITLE1=Caught In The Middle
TTITLE2=Emergency Boogie
TTITLE3=Rolling With The Blues
TTITLE4=Howlin' Moon
TTITLE5=Room To Move
TTITLE6=Next Time Around
TTITLE7=Feels Good In Frankfurt
TTITLE8=Make My Bed Tonight
TTITLE9=Sad To Be Alone
EXTD=
EXTT0=
EXTT1=
EXTT2=
EXTT3=
EXTT4=
EXTT5=
EXTT6=
EXTT7=
EXTT8=
EXTT9=
PLAYORDER=
